<svg id="visual" viewBox="0 0 1920 1080" width="1920" height="1080" xmlns="http://www.w3.org/2000/svg" xmlns:xlink="http://www.w3.org/1999/xlink" version="1.1"><rect x="0" y="0" width="1920" height="1080" fill="#fff"></rect><defs><linearGradient id="grad1_0" x1="43.8%" y1="100%" x2="100%" y2="0%"><stop offset="14.444444444444446%" stop-color="#ffffff" stop-opacity="1"></stop><stop offset="85.55555555555554%" stop-color="#ffffff" stop-opacity="1"></stop></linearGradient></defs><defs><linearGradient id="grad2_0" x1="0%" y1="100%" x2="56.3%" y2="0%"><stop offset="14.444444444444446%" stop-color="#ffffff" stop-opacity="1"></stop><stop offset="85.55555555555554%" stop-color="#ffffff" stop-opacity="1"></stop></linearGradient></defs><g transform="translate(1920, 1080)"><path d="M-540 0C-544.4 -35.7 -548.8 -71.4 -509.1 -89.8C-469.5 -108.1 -385.9 -109.1 -372.1 -135.4C-358.3 -161.8 -414.3 -213.5 -416.6 -240.5C-418.8 -267.5 -367.3 -269.7 -337.1 -282.8C-306.8 -296 -297.9 -320.2 -281.5 -335.5C-265.2 -350.9 -241.6 -357.5 -227.5 -394C-213.4 -430.6 -208.9 -497.2 -184.7 -507.4C-160.5 -517.7 -116.5 -471.7 -82.5 -467.8C-48.4 -463.8 -24.2 -501.9 0 -540L0 0Z" fill="#78bc16"></path></g><g transform="translate(0, 0)"><path d="M540 0C538.1 33 536.1 66 520 91.7C503.8 117.3 473.5 135.6 473.6 172.4C473.7 209.1 504.3 264.3 467.7 270C431 275.7 327 231.9 304.9 255.8C282.8 279.7 342.5 371.3 342.6 408.3C342.7 445.3 283.3 427.8 241 417.4C198.7 407 173.5 403.8 150.8 414.4C128.2 425 108.1 449.5 83.4 472.7C58.6 495.9 29.3 518 0 540L0 0Z" fill="#78bc16"></path></g></svg>